<?xml version="1.0" encoding="utf-8"?>
<!-- Generator: Adobe Illustrator 24.3.0, SVG Export Plug-In . SVG Version: 6.00 Build 0)  -->
<svg version="1.1" id="Слой_1" xmlns="http://www.w3.org/2000/svg" xmlns:xlink="http://www.w3.org/1999/xlink" x="0px" y="0px"
	 viewBox="0 0 1920 1080" style="enable-background:new 0 0 1920 1080;" xml:space="preserve">
<style type="text/css">
	.st0{fill:BurlyWood;}
	.st1{fill:#9e7a73;}
	.st2{fill:#FFFFFF;}
</style>
<g>
	<circle class="st0" cx="1028" cy="397" r="52" stroke="10"/>
	<path d="M1028,348c27.02,0,49,21.98,49,49c0,27.02-21.98,49-49,49s-49-21.98-49-49C979,369.98,1000.98,348,1028,348 M1028,342
		c-30.38,0-55,24.62-55,55s24.62,55,55,55c30.38,0,55-24.62,55-55S1058.38,342,1028,342L1028,342z"/>
</g>
<g>
	<circle class="st1" cx="1028" cy="397" r="32"/>
	<path d="M1028,368c15.99,0,29,13.01,29,29c0,15.99-13.01,29-29,29c-15.99,0-29-13.01-29-29C999,381.01,1012.01,368,1028,368
		 M1028,362c-19.33,0-35,15.67-35,35s15.67,35,35,35s35-15.67,35-35S1047.33,362,1028,362L1028,362z"/>
</g>
<g>
	<circle class="st0" cx="791" cy="397" r="52"/>
	<path d="M791,348c27.02,0,49,21.98,49,49c0,27.02-21.98,49-49,49s-49-21.98-49-49C742,369.98,763.98,348,791,348 M791,342
		c-30.38,0-55,24.62-55,55s24.62,55,55,55s55-24.62,55-55S821.38,342,791,342L791,342z"/>
</g>
<g>
	<circle class="st1" cx="791" cy="397" r="32"/>
	<path d="M791,368c15.99,0,29,13.01,29,29s-13.01,29-29,29c-15.99,0-29-13.01-29-29S775.01,368,791,368 M791,362
		c-19.33,0-35,15.67-35,35s15.67,35,35,35s35-15.67,35-35S810.33,362,791,362L791,362z"/>
</g>
<g>
	<path class="st0" d="M916,721c-58.67,0-108.64-13.5-144.53-39.04c-18.88-13.44-33.52-30.06-43.5-49.39
		c-10.6-20.53-15.97-44.22-15.97-70.39c0-51.91,20.63-96.55,59.65-129.1C808.82,402.07,860.09,385,916,385
		c55.84,0,106.92,17.07,143.84,48.07c38.7,32.5,59.16,77.14,59.16,129.11c0,26.19-5.32,49.88-15.82,70.4
		c-9.9,19.34-24.42,35.96-43.16,49.39C1024.38,707.5,974.58,721,916,721z"/>
	<path d="M916,388c55.13,0,105.53,16.82,141.91,47.37c18.35,15.4,32.65,33.82,42.51,54.74c10.34,21.91,15.58,46.16,15.58,72.08
		c0,25.71-5.21,48.94-15.49,69.03c-9.68,18.91-23.89,35.17-42.24,48.32C1023.14,704.7,973.95,718,916,718
		c-58.04,0-107.41-13.31-142.79-38.48c-18.49-13.16-32.81-29.42-42.57-48.33c-10.38-20.1-15.64-43.32-15.64-69.02
		c0-25.89,5.29-50.13,15.72-72.06c9.95-20.91,24.37-39.32,42.85-54.74C810.21,404.83,860.79,388,916,388 M916,382
		c-114.05,0-207,70-207,180.18C709,672.36,801.95,724,916,724s206-51.64,206-161.82C1122,452,1030.05,382,916,382L916,382z"/>
</g>
<g>
	<path d="M857.06,587.44c-9.78,0-19.59-9.69-23.32-23.05c-4.31-15.4,0.82-30.35,11.44-33.32c1.21-0.34,2.48-0.51,3.75-0.51
		c9.78,0,19.59,9.69,23.32,23.05c4.31,15.4-0.82,30.35-11.44,33.32C859.6,587.27,858.34,587.44,857.06,587.44z"/>
	<path d="M848.94,527.56v6c8.32,0,17.1,8.97,20.43,20.86c1.97,7.03,1.88,14.11-0.25,19.93c-1.87,5.13-5.11,8.57-9.12,9.69
		c-0.95,0.27-1.94,0.4-2.94,0.4c-8.32,0-17.11-8.97-20.43-20.86c-3.8-13.57,0.49-27.14,9.36-29.62c0.95-0.27,1.94-0.4,2.94-0.4
		L848.94,527.56 M848.94,527.56c-1.53,0-3.06,0.2-4.56,0.62c-12.23,3.42-18.29,19.99-13.53,37.01
		c4.18,14.93,15.29,25.24,26.21,25.24c1.53,0,3.06-0.2,4.56-0.62c12.23-3.42,18.29-19.99,13.53-37.01
		C870.97,537.87,859.86,527.56,848.94,527.56L848.94,527.56z"/>
</g>
<g>
	<path d="M979.43,587.37c-1.72,0-3.39-0.3-4.96-0.89c-4.82-1.81-8.4-6.24-10.08-12.47c-1.78-6.58-1.22-14.3,1.57-21.71
		c4.65-12.36,14.5-21,23.96-21c1.72,0,3.39,0.3,4.96,0.89c4.82,1.81,8.4,6.24,10.08,12.47c1.78,6.58,1.22,14.3-1.57,21.71
		C998.74,578.73,988.89,587.37,979.43,587.37z"/>
	<path d="M989.91,528.3v6c1.36,0,2.67,0.23,3.91,0.7c3.89,1.46,6.82,5.17,8.24,10.44c1.61,5.98,1.09,13.04-1.48,19.88
		c-4.15,11.04-13.05,19.05-21.15,19.05c-1.36,0-2.68-0.23-3.91-0.7c-8.63-3.24-11.72-17.13-6.76-30.32
		c4.15-11.04,13.05-19.05,21.16-19.05L989.91,528.3 M989.91,528.3c-10.45,0-21.57,9.11-26.77,22.94
		c-6.22,16.54-1.62,33.58,10.27,38.05c1.95,0.73,3.97,1.08,6.02,1.08c10.45,0,21.57-9.11,26.77-22.94
		c6.22-16.54,1.62-33.58-10.27-38.05C993.98,528.65,991.96,528.3,989.91,528.3L989.91,528.3z"/>
</g>
<g>
	<path class="st1" d="M915.5,658c-22.6,0-43.8-4.91-59.7-13.82c-15.35-8.61-23.8-19.86-23.8-31.68s8.45-23.07,23.8-31.68
		c15.9-8.91,37.1-13.82,59.7-13.82s43.8,4.91,59.7,13.82c15.35,8.61,23.8,19.86,23.8,31.68s-8.45,23.07-23.8,31.68
		C959.3,653.09,938.1,658,915.5,658z"/>
	<path d="M915.5,570c22.09,0,42.77,4.77,58.23,13.44c14.36,8.05,22.27,18.37,22.27,29.06s-7.91,21.01-22.27,29.06
		C958.27,650.23,937.59,655,915.5,655s-42.77-4.77-58.23-13.44C842.91,633.51,835,623.19,835,612.5s7.91-21.01,22.27-29.06
		C872.73,574.77,893.41,570,915.5,570 M915.5,564c-47.77,0-86.5,21.71-86.5,48.5s38.73,48.5,86.5,48.5s86.5-21.71,86.5-48.5
		S963.27,564,915.5,564L915.5,564z"/>
</g>
<g>
	<ellipse cx="916" cy="573" rx="42" ry="20"/>
	<path d="M916,556c22.32,0,39,8.98,39,17s-16.68,17-39,17s-39-8.98-39-17S893.68,556,916,556 M916,550c-24.85,0-45,10.3-45,23
		s20.15,23,45,23s45-10.3,45-23S940.85,550,916,550L916,550z"/>
</g>
<g>
	<g>
		<path d="M887.38,626.62c7.53,1.68,15.62-0.06,21.74-4.79c6.06-4.69,9.67-12.16,9.88-19.8c0.03-1.02-0.01-2.04-0.12-3.06
			c-0.09-0.84-0.08-1.81-0.69-2.45c-0.69-0.72-1.6-1.3-2.38-1.93c-1.47-1.19-3.51,0.72-2.12,2.12c2.41,2.42,2.22,6.23,2.58,9.4
			c0.34,3.05,1.21,5.94,2.84,8.56c3.15,5.07,8.54,8.83,14.42,9.9c3.44,0.63,6.97,0.38,10.24-0.86c1.79-0.68,1.01-3.58-0.8-2.89
			c-5.38,2.04-11.23,1.04-15.95-2.15c-2.26-1.53-4.2-3.57-5.58-5.93c-1.49-2.53-2.07-5.23-2.33-8.13
			c-0.32-3.58-0.63-7.33-3.31-10.02c-0.71,0.71-1.41,1.41-2.12,2.12c0.62,0.51,1.25,1.02,1.87,1.52c0.14,0.11,0.27,0.23,0.42,0.34
			c0.35,0.27-0.18-0.11-0.16-0.15c-0.11,0.26,0.11,1.05,0.13,1.32c0.03,0.45,0.05,0.89,0.06,1.34c0.04,3.3-0.63,6.64-1.96,9.67
			c-2.73,6.18-8.03,10.79-14.53,12.64c-3.69,1.05-7.59,1.19-11.34,0.36C886.3,623.31,885.5,626.2,887.38,626.62L887.38,626.62z"/>
	</g>
</g>
<ellipse class="st2" cx="842.5" cy="546.5" rx="10.5" ry="9.5"/>
<circle class="st2" cx="993.5" cy="546.5" r="10.5"/>
</svg>
